<?xml version="1.0" encoding="UTF-8" standalone="no"?>
<svg width="920" height="320" xmlns="http://www.w3.org/2000/svg">
  <rect width="100%" height="100%" fill="#ffffff"/>
  <defs>
    <style type="text/css"><![CDATA[
      .box { fill:#e1f5fe; stroke:#0288d1; stroke-width:2px; }
      .box2 { fill:#fff3e0; stroke:#ef6c00; stroke-width:2px; }
      .box3 { fill:#f3e5f5; stroke:#6a1b9a; stroke-width:2px; }
      .box4 { fill:#e8eaf6; stroke:#303f9f; stroke-width:2px; }
      .box5 { fill:#e0f2f1; stroke:#00796b; stroke-width:2px; }
      .box6 { fill:#f1f8e9; stroke:#558b2f; stroke-width:2px; }
      .label { font-family: Arial, sans-serif; font-size: 14px; fill: #333; }
      .arrow { stroke: #555; stroke-width: 2px; marker-end: url(#arrowhead); }
    ]]></style>
    <marker id="arrowhead" markerWidth="10" markerHeight="7" refX="10" refY="3.5" orient="auto">
      <polygon points="0 0, 10 3.5, 0 7" fill="#555" />
    </marker>
  </defs>

  <rect class="box" x="30" y="120" width="160" height="60" rx="8"/>
  <text class="label" x="40" y="150">Binance WS (trades)</text>

  <rect class="box2" x="220" y="110" width="200" height="80" rx="8"/>
  <text class="label" x="230" y="145">WebSocket Ingester</text>
  <text class="label" x="230" y="165">(websockets, asyncio)</text>

  <rect class="box3" x="450" y="110" width="180" height="80" rx="8"/>
  <text class="label" x="460" y="145">SQLite (ticks.db)</text>
  <text class="label" x="460" y="165">SQLAlchemy async</text>

  <rect class="box6" x="450" y="210" width="180" height="60" rx="8"/>
  <text class="label" x="460" y="240">OHLC Upload (CSV)</text>

  <rect class="box4" x="660" y="110" width="160" height="80" rx="8"/>
  <text class="label" x="670" y="145">FastAPI (/api)</text>
  <text class="label" x="670" y="165">analytics, adf, bt</text>

  <rect class="box5" x="850" y="110" width="180" height="80" rx="8"/>
  <text class="label" x="860" y="145">Streamlit + Plotly</text>

  <line class="arrow" x1="190" y1="150" x2="220" y2="150"/>
  <line class="arrow" x1="420" y1="150" x2="450" y2="150"/>
  <line class="arrow" x1="630" y1="150" x2="660" y2="150"/>
  <line class="arrow" x1="540" y1="210" x2="660" y2="150"/>
  <line class="arrow" x1="820" y1="150" x2="850" y2="150"/>
</svg>
